<?xml version="1.0" encoding="UTF-8"?>
<!DOCTYPE svg PUBLIC "-//W3C//DTD SVG 1.1//EN" "http://www.w3.org/Graphics/SVG/1.1/DTD/svg11.dtd">
<!-- Creator: CorelDRAW 2018 (64-Bit) -->
<svg xmlns="http://www.w3.org/2000/svg" xml:space="preserve" width="16.0242mm" height="20.6996mm" version="1.1" style="shape-rendering:geometricPrecision; text-rendering:geometricPrecision; image-rendering:optimizeQuality; fill-rule:evenodd; clip-rule:evenodd"
viewBox="0 0 242.79 313.63"
 xmlns:xlink="http://www.w3.org/1999/xlink">
 <defs>
  <style type="text/css">
   <![CDATA[
    .fil0 {fill:black;fill-rule:nonzero}
   ]]>
  </style>
 </defs>
 <g id="Слой_x0020_1">
  <metadata id="CorelCorpID_0Corel-Layer"/>
  <path class="fil0" d="M128.74 0c-85.59,0 -128.74,61.37 -128.74,112.54 0,30.99 11.73,58.55 36.89,68.82 4.13,1.68 7.82,0.05 9.02,-4.51 0.83,-3.16 2.8,-11.13 3.68,-14.45 1.21,-4.52 0.74,-6.1 -2.59,-10.04 -7.26,-8.56 -11.89,-19.64 -11.89,-35.33 0,-45.53 34.06,-86.28 88.7,-86.28 48.38,0 74.95,29.56 74.95,69.03 0,51.94 -22.98,95.78 -57.11,95.78 -18.84,0 -32.95,-15.59 -28.43,-34.7 5.41,-22.82 15.9,-47.45 15.9,-63.92 0,-14.75 -7.91,-27.05 -24.29,-27.05 -19.26,0 -34.74,19.93 -34.74,46.63 0,17 5.75,28.51 5.75,28.51 0,0 -19.71,83.53 -23.17,98.16 -6.88,29.14 -1.04,64.86 -0.54,68.46 0.3,2.13 3.04,2.64 4.28,1.03 1.78,-2.31 24.73,-30.64 32.53,-58.95 2.21,-8.01 12.67,-49.52 12.67,-49.52 6.26,11.94 24.55,22.45 44,22.45 57.91,0 97.2,-52.79 97.2,-123.46 0,-53.44 -45.26,-103.2 -114.05,-103.2z"/>
 </g>
</svg>
